<?xml version="1.0" encoding="utf-8" ?>
<svg baseProfile="full" height="500" version="1.1" width="500" xmlns="http://www.w3.org/2000/svg" xmlns:ev="http://www.w3.org/2001/xml-events" xmlns:xlink="http://www.w3.org/1999/xlink"><defs /><polygon fill="none" points="250.0,10 490,250.0 250.0,490 10,250.0" stroke="black" stroke-width="2" /><line stroke="black" x1="250.0" x2="250.0" y1="10" y2="490" /><line stroke="black" x1="10" x2="490" y1="250.0" y2="250.0" /><line stroke="black" x1="250.0" x2="130.0" y1="10" y2="370.0" /><line stroke="black" x1="490" x2="130.0" y1="250.0" y2="130.0" /><line stroke="black" x1="250.0" x2="370.0" y1="490" y2="130.0" /><line stroke="black" x1="10" x2="370.0" y1="250.0" y2="370.0" /><text fill="black" font-size="12px" text-anchor="middle" x="250.0" y="250.0">1 (Asc)</text><text fill="black" font-size="12px" text-anchor="middle" x="250.0" y="262.0">Can</text><text fill="black" font-size="12px" text-anchor="middle" x="250.0" y="274.0" /><text fill="black" font-size="12px" text-anchor="middle" x="390.0" y="110.0">2</text><text fill="black" font-size="12px" text-anchor="middle" x="390.0" y="122.0">Leo</text><text fill="black" font-size="12px" text-anchor="middle" x="390.0" y="134.0" /><text fill="black" font-size="12px" text-anchor="middle" x="450" y="230.0">3</text><text fill="black" font-size="12px" text-anchor="middle" x="450" y="242.0">Vir</text><text fill="black" font-size="12px" text-anchor="middle" x="450" y="254.0" /><text fill="black" font-size="12px" text-anchor="middle" x="390.0" y="390.0">4</text><text fill="black" font-size="12px" text-anchor="middle" x="390.0" y="402.0">Lib</text><text fill="black" font-size="12px" text-anchor="middle" x="390.0" y="414.0">Rahu</text><text fill="black" font-size="12px" text-anchor="middle" x="260.0" y="470">5</text><text fill="black" font-size="12px" text-anchor="middle" x="260.0" y="482">Sco</text><text fill="black" font-size="12px" text-anchor="middle" x="260.0" y="494" /><text fill="black" font-size="12px" text-anchor="middle" x="100.0" y="390.0">6</text><text fill="black" font-size="12px" text-anchor="middle" x="100.0" y="402.0">Sag</text><text fill="black" font-size="12px" text-anchor="middle" x="100.0" y="414.0">Sun,Mercury,MARS BARYCENTER</text><text fill="black" font-size="12px" text-anchor="middle" x="30" y="270.0">7</text><text fill="black" font-size="12px" text-anchor="middle" x="30" y="282.0">Cap</text><text fill="black" font-size="12px" text-anchor="middle" x="30" y="294.0">Venus,MARS BARYCENTER</text><text fill="black" font-size="12px" text-anchor="middle" x="100.0" y="120.0">8</text><text fill="black" font-size="12px" text-anchor="middle" x="100.0" y="132.0">Aqu</text><text fill="black" font-size="12px" text-anchor="middle" x="100.0" y="144.0" /><text fill="black" font-size="12px" text-anchor="middle" x="210.0" y="20">9</text><text fill="black" font-size="12px" text-anchor="middle" x="210.0" y="32">Pis</text><text fill="black" font-size="12px" text-anchor="middle" x="210.0" y="44">SATURN BARYCENTER</text><text fill="black" font-size="12px" text-anchor="middle" x="340.0" y="110.0">10</text><text fill="black" font-size="12px" text-anchor="middle" x="340.0" y="122.0">Ari</text><text fill="black" font-size="12px" text-anchor="middle" x="340.0" y="134.0">Ketu</text><text fill="black" font-size="12px" text-anchor="middle" x="360.0" y="350.0">11</text><text fill="black" font-size="12px" text-anchor="middle" x="360.0" y="362.0">Tau</text><text fill="black" font-size="12px" text-anchor="middle" x="360.0" y="374.0" /><text fill="black" font-size="12px" text-anchor="middle" x="140.0" y="140.0">12</text><text fill="black" font-size="12px" text-anchor="middle" x="140.0" y="152.0">Gem</text><text fill="black" font-size="12px" text-anchor="middle" x="140.0" y="164.0">Moon</text></svg>