<?xml version="1.0" encoding="utf-8" ?>
<svg baseProfile="full" height="500" version="1.1" width="500" xmlns="http://www.w3.org/2000/svg" xmlns:ev="http://www.w3.org/2001/xml-events" xmlns:xlink="http://www.w3.org/1999/xlink"><defs /><polygon fill="none" points="250.0,0 500,250.0 250.0,500 0,250.0" stroke="black" stroke-width="2" /><line stroke="black" x1="250.0" x2="250.0" y1="0" y2="500" /><line stroke="black" x1="0" x2="500" y1="250.0" y2="250.0" /><line stroke="black" x1="375.0" x2="125.0" y1="125.0" y2="375.0" /><line stroke="black" x1="125.0" x2="375.0" y1="125.0" y2="375.0" /><text fill="black" font-size="10px" text-anchor="middle" x="250.0" y="40">1</text><text fill="black" font-size="10px" text-anchor="middle" x="250.0" y="52">Can</text><text fill="black" font-size="10px" text-anchor="middle" x="250.0" y="64" /><text fill="black" font-size="10px" text-anchor="middle" x="395.0" y="145.0">2</text><text fill="black" font-size="10px" text-anchor="middle" x="395.0" y="157.0">Leo</text><text fill="black" font-size="10px" text-anchor="middle" x="395.0" y="169.0" /><text fill="black" font-size="10px" text-anchor="middle" x="460" y="240.0">3</text><text fill="black" font-size="10px" text-anchor="middle" x="460" y="252.0">Vir</text><text fill="black" font-size="10px" text-anchor="middle" x="460" y="264.0" /><text fill="black" font-size="10px" text-anchor="middle" x="385.0" y="395.0">4</text><text fill="black" font-size="10px" text-anchor="middle" x="385.0" y="407.0">Lib</text><text fill="black" font-size="10px" text-anchor="middle" x="385.0" y="419.0">Rahu</text><text fill="black" font-size="10px" text-anchor="middle" x="250.0" y="470">5</text><text fill="black" font-size="10px" text-anchor="middle" x="250.0" y="482">Sco</text><text fill="black" font-size="10px" text-anchor="middle" x="250.0" y="494" /><text fill="black" font-size="10px" text-anchor="middle" x="105.0" y="395.0">6</text><text fill="black" font-size="10px" text-anchor="middle" x="105.0" y="407.0">Sag</text><text fill="black" font-size="10px" text-anchor="middle" x="105.0" y="419.0">Sun, Mercury, MARS BARYCENTER</text><text fill="black" font-size="10px" text-anchor="middle" x="40" y="260.0">7</text><text fill="black" font-size="10px" text-anchor="middle" x="40" y="272.0">Cap</text><text fill="black" font-size="10px" text-anchor="middle" x="40" y="284.0">Venus, MARS BARYCENTER</text><text fill="black" font-size="10px" text-anchor="middle" x="105.0" y="105.0">8</text><text fill="black" font-size="10px" text-anchor="middle" x="105.0" y="117.0">Aqu</text><text fill="black" font-size="10px" text-anchor="middle" x="105.0" y="129.0" /><text fill="black" font-size="10px" text-anchor="middle" x="210.0" y="10">9</text><text fill="black" font-size="10px" text-anchor="middle" x="210.0" y="22">Pis</text><text fill="black" font-size="10px" text-anchor="middle" x="210.0" y="34">SATURN BARYCENTER</text><text fill="black" font-size="10px" text-anchor="middle" x="250.0" y="190.0">10</text><text fill="black" font-size="10px" text-anchor="middle" x="250.0" y="202.0">Ari</text><text fill="black" font-size="10px" text-anchor="middle" x="250.0" y="214.0">Ketu</text><text fill="black" font-size="10px" text-anchor="middle" x="310.0" y="250.0">11</text><text fill="black" font-size="10px" text-anchor="middle" x="310.0" y="262.0">Tau</text><text fill="black" font-size="10px" text-anchor="middle" x="310.0" y="274.0" /><text fill="black" font-size="10px" text-anchor="middle" x="250.0" y="310.0">12</text><text fill="black" font-size="10px" text-anchor="middle" x="250.0" y="322.0">Gem</text><text fill="black" font-size="10px" text-anchor="middle" x="250.0" y="334.0">Moon</text></svg>