<?xml version="1.0" encoding="utf-8" ?>
<svg baseProfile="full" height="500px" version="1.1" width="500px" xmlns="http://www.w3.org/2000/svg" xmlns:ev="http://www.w3.org/2001/xml-events" xmlns:xlink="http://www.w3.org/1999/xlink"><defs /><polygon fill="white" points="450.0,49.999999999999986 450.0,450.0 50.0,450.0 50.0,50.000000000000014" stroke="black" stroke-width="2" /><line stroke="black" stroke-width="2" x1="450.0" x2="50.0" y1="49.999999999999986" y2="450.0" /><line stroke="black" stroke-width="2" x1="450.0" x2="50.0" y1="450.0" y2="50.000000000000014" /><line stroke="black" stroke-width="2" x1="450.0" x2="250.0" y1="250.0" y2="450.0" /><line stroke="black" stroke-width="2" x1="250.0" x2="50.0" y1="450.0" y2="250.0" /><line stroke="black" stroke-width="2" x1="50.0" x2="250.0" y1="250.0" y2="50.0" /><line stroke="black" stroke-width="2" x1="250.0" x2="450.0" y1="50.0" y2="250.0" /><text fill="black" font-size="11px" text-anchor="middle" transform="rotate(0,150,80)" x="150" y="80">1 Cancer</text><text fill="black" font-size="11px" text-anchor="middle" transform="rotate(0,340,80)" x="340" y="80">2 Leo</text><text fill="blue" font-size="10px" text-anchor="middle" transform="rotate(0,340,94)" x="340" y="94">Ketu</text><text fill="black" font-size="11px" text-anchor="middle" transform="rotate(90,430,140)" x="430" y="140">3 Virgo</text><text fill="black" font-size="11px" text-anchor="middle" transform="rotate(0,430,320)" x="430" y="320">4 Libra</text><text fill="black" font-size="11px" text-anchor="middle" transform="rotate(0,360,400)" x="360" y="400">5 Scorpio</text><text fill="blue" font-size="10px" text-anchor="middle" transform="rotate(0,360,414)" x="360" y="414">Moon, Mars, Saturn</text><text fill="black" font-size="11px" text-anchor="middle" transform="rotate(0,150,400)" x="150" y="400">6 Sagittarius</text><text fill="black" font-size="11px" text-anchor="middle" transform="rotate(0,80,320)" x="80" y="320">7 Capricorn</text><text fill="blue" font-size="10px" text-anchor="middle" transform="rotate(0,80,334)" x="80" y="334">Sun, Mercury, Venus</text><text fill="black" font-size="11px" text-anchor="middle" transform="rotate(315,80,140)" x="80" y="140">8 Aquarius</text><text fill="blue" font-size="10px" text-anchor="middle" transform="rotate(315,80,154)" x="80" y="154">Rahu</text><text fill="black" font-size="11px" text-anchor="middle" transform="rotate(0,150,250)" x="150" y="250">9 Pisces</text><text fill="black" font-size="11px" text-anchor="middle" transform="rotate(0,250,150)" x="250" y="150">10 Aries</text><text fill="black" font-size="11px" text-anchor="middle" transform="rotate(0,340,240)" x="340" y="240">11 Taurus</text><text fill="black" font-size="11px" text-anchor="middle" transform="rotate(0,250,340)" x="250" y="340">12 Gemini</text><text fill="blue" font-size="10px" text-anchor="middle" transform="rotate(0,250,354)" x="250" y="354">Jupiter</text></svg>